<?xml version="1.0" standalone="no"?>
<!DOCTYPE svg PUBLIC "-//W3C//DTD SVG 20010904//EN"
 "http://www.w3.org/TR/2001/REC-SVG-20010904/DTD/svg10.dtd">
<svg version="1.0" xmlns="http://www.w3.org/2000/svg"
 width="512.000000pt" height="512.000000pt" viewBox="0 0 512.000000 512.000000"
 preserveAspectRatio="xMidYMid meet">

<g transform="translate(0.000000,512.000000) scale(0.100000,-0.100000)"
fill="blue" stroke="none">
<path d="M2560 4370 l0 -350 74 0 c274 0 628 -138 860 -335 57 -48 70 -55 81
-44 78 85 435 513 433 519 -7 18 -158 137 -258 203 -238 157 -518 270 -794
321 -97 18 -268 36 -342 36 l-54 0 0 -350z"/>
<path d="M3961 3078 c-403 -464 -407 -470 -378 -540 29 -70 57 -78 261 -78
l179 0 -7 -62 c-18 -160 -62 -308 -137 -467 -70 -147 -147 -258 -263 -379
-126 -130 -237 -214 -385 -290 -194 -100 -364 -148 -558 -159 l-113 -6 0 -348
0 -349 54 0 c74 0 245 18 342 36 658 121 1233 553 1534 1154 127 254 192 487
225 813 l6 57 152 0 c174 0 206 11 233 77 28 66 17 85 -173 305 -430 494 -584
668 -591 667 -4 0 -175 -194 -381 -431z"/>
</g>
</svg>
