<?xml version="1.0" standalone="no"?>
<!DOCTYPE svg PUBLIC "-//W3C//DTD SVG 20010904//EN"
 "http://www.w3.org/TR/2001/REC-SVG-20010904/DTD/svg10.dtd">
<svg version="1.0" xmlns="http://www.w3.org/2000/svg"
 width="512.000000pt" height="512.000000pt" viewBox="0 0 512.000000 512.000000"
 preserveAspectRatio="xMidYMid meet">

<g transform="translate(0.000000,512.000000) scale(0.100000,-0.100000)"
fill="blue" stroke="none">
<path d="M2360 4251 c-236 -51 -442 -191 -568 -384 -93 -142 -144 -312 -157
-527 l-8 -110 -63 0 c-234 0 -409 -140 -444 -356 -13 -78 -13 -1600 0 -1678
28 -175 164 -313 339 -346 78 -15 2153 -14 2223 1 169 36 304 179 328 350 12
83 12 1584 0 1667 -17 124 -96 244 -201 305 -61 36 -149 57 -239 57 l-76 0 -2
96 c-6 254 -83 471 -228 641 -102 119 -287 232 -449 274 -116 31 -339 36 -455
10z m320 -225 c356 -65 580 -341 580 -718 l0 -78 -695 0 -695 0 0 79 c0 137
38 288 101 398 46 80 152 188 228 233 148 87 312 116 481 86z m1024 -1070 c21
-16 47 -48 57 -72 19 -42 19 -74 17 -856 l-3 -813 -27 -47 c-19 -32 -41 -52
-71 -67 -43 -21 -47 -21 -1121 -21 -1053 0 -1078 0 -1116 20 -47 24 -75 62
-90 121 -7 31 -10 288 -8 846 l3 801 30 43 c17 23 46 50 65 61 34 17 78 18
1131 16 l1096 -3 37 -29z"/>
<path d="M2502 2588 c-221 -35 -372 -258 -322 -476 26 -109 116 -224 213 -271
l47 -23 0 -132 c0 -122 2 -136 23 -167 53 -78 141 -78 194 0 21 31 23 45 23
166 l0 133 54 26 c72 35 157 128 187 203 18 46 23 78 24 153 0 86 -3 101 -31
160 -40 83 -75 124 -146 171 -80 51 -176 72 -266 57z m146 -255 c70 -52 92
-140 53 -210 -35 -61 -66 -78 -141 -78 -69 0 -97 13 -134 63 -21 27 -32 97
-22 136 8 34 54 86 91 102 40 19 120 12 153 -13z"/>
</g>
</svg>
