<?xml version="1.0" standalone="no"?>
<!DOCTYPE svg PUBLIC "-//W3C//DTD SVG 20010904//EN"
 "http://www.w3.org/TR/2001/REC-SVG-20010904/DTD/svg10.dtd">
<svg version="1.0" xmlns="http://www.w3.org/2000/svg"
 width="512.000000pt" height="512.000000pt" viewBox="0 0 512.000000 512.000000"
 preserveAspectRatio="xMidYMid meet">

<g transform="translate(0.000000,512.000000) scale(0.100000,-0.100000)"
fill="#000000" stroke="none">
<path d="M2009 4836 c-169 -37 -326 -162 -398 -318 -42 -89 -61 -169 -61 -255
l0 -53 -382 0 c-423 0 -453 -4 -575 -62 -92 -44 -216 -167 -261 -259 -50 -104
-62 -172 -62 -369 0 -276 34 -375 174 -515 112 -112 250 -174 384 -175 29 0
48 -6 62 -20 20 -20 20 -33 20 -1022 0 -1104 -2 -1065 62 -1197 44 -91 168
-214 261 -259 133 -64 78 -62 1327 -62 1250 0 1196 -2 1329 62 92 45 215 169
259 261 64 133 62 92 62 1195 0 989 0 1002 20 1022 14 14 33 20 63 20 63 0
158 26 234 62 94 45 216 167 261 261 51 106 62 170 62 367 0 197 -12 265 -62
369 -44 90 -169 215 -259 259 -120 58 -154 62 -576 62 l-383 0 0 58 c0 214
-138 431 -332 521 -45 22 -110 44 -142 50 -87 16 -1013 13 -1087 -3z m1091
-325 c98 -51 151 -132 153 -235 l2 -61 -695 0 -695 0 2 61 c3 123 86 224 208
255 17 4 244 7 505 6 l475 -2 45 -24z m1276 -640 c47 -21 106 -76 131 -124 16
-27 18 -59 18 -227 l0 -195 -33 -52 c-51 -79 -109 -112 -229 -127 -186 -24
-283 -94 -346 -247 l-22 -54 -5 -1040 -5 -1040 -33 -52 c-20 -32 -53 -65 -85
-85 l-52 -33 -1155 0 c-1085 0 -1157 1 -1187 18 -48 25 -103 84 -124 131 -18
39 -19 87 -19 1031 0 579 -4 1014 -10 1048 -13 82 -51 158 -103 211 -67 66
-130 94 -253 111 -117 17 -147 29 -200 82 -66 66 -74 96 -74 293 0 149 3 181
19 216 24 52 83 111 135 135 39 18 106 19 1816 19 1710 0 1777 -1 1816 -19z"/>
</g>
</svg>
