<?xml version="1.0" standalone="no"?>
<!DOCTYPE svg PUBLIC "-//W3C//DTD SVG 20010904//EN"
 "http://www.w3.org/TR/2001/REC-SVG-20010904/DTD/svg10.dtd">
<svg version="1.0" xmlns="http://www.w3.org/2000/svg"
 width="512.000000pt" height="512.000000pt" viewBox="0 0 512.000000 512.000000"
 preserveAspectRatio="xMidYMid meet">

<g transform="translate(0.000000,512.000000) scale(0.100000,-0.100000)"
fill="blue" stroke="none">
<path d="M4215 4767 c-27 -8 -66 -22 -85 -32 -38 -20 -460 -432 -460 -449 0
-6 175 -187 390 -401 l390 -390 219 219 c187 187 224 229 247 280 45 101 36
225 -25 317 -16 24 -113 126 -214 226 -143 143 -196 188 -239 208 -66 30 -156
39 -223 22z"/>
<path d="M2570 2405 l-1185 -1185 50 0 c165 0 317 -96 392 -247 l37 -74 1143
1143 c629 629 1143 1147 1143 1152 0 10 -380 396 -390 396 -3 0 -538 -533
-1190 -1185z"/>
<path d="M623 618 c-62 -150 -111 -273 -110 -274 2 -2 539 217 547 223 4 4
-311 323 -320 323 -3 0 -56 -122 -117 -272z"/>
</g>
</svg>
